<?xml version="1.0" standalone="no"?>
<!DOCTYPE svg PUBLIC "-//W3C//DTD SVG 20010904//EN"
 "http://www.w3.org/TR/2001/REC-SVG-20010904/DTD/svg10.dtd">
<svg version="1.0" xmlns="http://www.w3.org/2000/svg"
 width="376.000000pt" height="322.000000pt" viewBox="0 0 376.000000 322.000000"
 preserveAspectRatio="xMidYMid meet">

<g transform="translate(0.000000,322.000000) scale(0.100000,-0.100000)"
fill="#000000" stroke="none">
<path d="M2560 2243 c-34 -11 -70 -41 -146 -118 -86 -88 -185 -205 -196 -233
-1 -5 -167 -12 -368 -15 l-365 -6 -37 72 c-52 99 -157 229 -212 262 -63 37
-104 41 -158 17 -58 -25 -103 -73 -197 -207 -228 -326 -466 -788 -582 -1132
-75 -218 -74 -289 1 -328 37 -19 63 -19 100 0 37 19 48 41 71 130 71 287 355
864 592 1202 40 57 75 103 79 103 15 0 66 -74 123 -181 86 -160 83 -159 359
-158 116 0 315 4 441 8 262 7 267 8 325 92 47 67 210 259 219 259 13 0 148
-209 174 -270 23 -52 71 -205 131 -416 45 -159 103 -404 125 -534 29 -159 43
-191 97 -209 52 -18 97 -3 125 43 26 43 24 86 -16 281 -73 354 -210 828 -281
970 -57 115 -210 334 -249 357 -44 25 -103 30 -155 11z"/>
<path d="M1248 1344 c-30 -16 -58 -61 -58 -94 0 -53 57 -110 110 -110 53 0
110 57 110 110 0 34 -28 78 -60 95 -36 19 -67 19 -102 -1z"/>
<path d="M2178 1344 c-30 -16 -58 -61 -58 -94 0 -12 7 -34 15 -50 17 -32 61
-60 95 -60 53 0 110 57 110 110 0 34 -28 78 -60 95 -36 19 -67 19 -102 -1z"/>
</g>
</svg>
